<mxfile host="app.diagrams.net" modified="2024-06-11T12:03:59.542Z" agent="Mozilla/5.0 (Windows NT 10.0; Win64; x64; rv:126.0) Gecko/20100101 Firefox/126.0" etag="2lS0XsGAZmmUUgFIEcPc" version="24.4.9" type="device">
  <diagram id="C5RBs43oDa-KdzZeNtuy" name="Page-1">
    <mxGraphModel dx="1500" dy="809" grid="1" gridSize="10" guides="1" tooltips="1" connect="1" arrows="1" fold="1" page="1" pageScale="1" pageWidth="827" pageHeight="1169" math="0" shadow="0">
      <root>
        <mxCell id="WIyWlLk6GJQsqaUBKTNV-0" />
        <mxCell id="WIyWlLk6GJQsqaUBKTNV-1" parent="WIyWlLk6GJQsqaUBKTNV-0" />
        <mxCell id="3WXc7A_SLaowkCH6H4nz-0" value="Card" style="swimlane;fontStyle=2;align=center;verticalAlign=top;childLayout=stackLayout;horizontal=1;startSize=26;horizontalStack=0;resizeParent=1;resizeLast=0;collapsible=1;marginBottom=0;rounded=0;shadow=0;strokeWidth=1;" vertex="1" parent="WIyWlLk6GJQsqaUBKTNV-1">
          <mxGeometry x="1220" y="160" width="240" height="200" as="geometry">
            <mxRectangle x="230" y="140" width="160" height="26" as="alternateBounds" />
          </mxGeometry>
        </mxCell>
        <mxCell id="3WXc7A_SLaowkCH6H4nz-1" value="# string _name" style="text;align=left;verticalAlign=top;spacingLeft=4;spacingRight=4;overflow=hidden;rotatable=0;points=[[0,0.5],[1,0.5]];portConstraint=eastwest;" vertex="1" parent="3WXc7A_SLaowkCH6H4nz-0">
          <mxGeometry y="26" width="240" height="26" as="geometry" />
        </mxCell>
        <mxCell id="3WXc7A_SLaowkCH6H4nz-2" value="# string _cardNumber" style="text;align=left;verticalAlign=top;spacingLeft=4;spacingRight=4;overflow=hidden;rotatable=0;points=[[0,0.5],[1,0.5]];portConstraint=eastwest;rounded=0;shadow=0;html=0;" vertex="1" parent="3WXc7A_SLaowkCH6H4nz-0">
          <mxGeometry y="52" width="240" height="26" as="geometry" />
        </mxCell>
        <mxCell id="3WXc7A_SLaowkCH6H4nz-3" value="# DateTime _expiry&#xa;&#xa;" style="text;align=left;verticalAlign=top;spacingLeft=4;spacingRight=4;overflow=hidden;rotatable=0;points=[[0,0.5],[1,0.5]];portConstraint=eastwest;rounded=0;shadow=0;html=0;" vertex="1" parent="3WXc7A_SLaowkCH6H4nz-0">
          <mxGeometry y="78" width="240" height="32" as="geometry" />
        </mxCell>
        <mxCell id="3WXc7A_SLaowkCH6H4nz-6" value="# double _accountNumber" style="text;whiteSpace=wrap;html=1;" vertex="1" parent="3WXc7A_SLaowkCH6H4nz-0">
          <mxGeometry y="110" width="240" height="30" as="geometry" />
        </mxCell>
        <mxCell id="3WXc7A_SLaowkCH6H4nz-4" value="" style="line;html=1;strokeWidth=1;align=left;verticalAlign=middle;spacingTop=-1;spacingLeft=3;spacingRight=3;rotatable=0;labelPosition=right;points=[];portConstraint=eastwest;" vertex="1" parent="3WXc7A_SLaowkCH6H4nz-0">
          <mxGeometry y="140" width="240" height="8" as="geometry" />
        </mxCell>
        <mxCell id="3WXc7A_SLaowkCH6H4nz-5" value="+ abstract string GenerateCardNumber()" style="text;align=left;verticalAlign=top;spacingLeft=4;spacingRight=4;overflow=hidden;rotatable=0;points=[[0,0.5],[1,0.5]];portConstraint=eastwest;" vertex="1" parent="3WXc7A_SLaowkCH6H4nz-0">
          <mxGeometry y="148" width="240" height="26" as="geometry" />
        </mxCell>
        <mxCell id="3WXc7A_SLaowkCH6H4nz-7" value="+ abstract DateTime GenerateExpiryDate()" style="text;align=left;verticalAlign=top;spacingLeft=4;spacingRight=4;overflow=hidden;rotatable=0;points=[[0,0.5],[1,0.5]];portConstraint=eastwest;" vertex="1" parent="3WXc7A_SLaowkCH6H4nz-0">
          <mxGeometry y="174" width="240" height="26" as="geometry" />
        </mxCell>
        <mxCell id="3WXc7A_SLaowkCH6H4nz-8" value="HÃ¦vekort" style="swimlane;fontStyle=0;align=center;verticalAlign=top;childLayout=stackLayout;horizontal=1;startSize=26;horizontalStack=0;resizeParent=1;resizeLast=0;collapsible=1;marginBottom=0;rounded=0;shadow=0;strokeWidth=1;" vertex="1" parent="WIyWlLk6GJQsqaUBKTNV-1">
          <mxGeometry x="610" y="440" width="247" height="130" as="geometry">
            <mxRectangle x="550" y="140" width="160" height="26" as="alternateBounds" />
          </mxGeometry>
        </mxCell>
        <mxCell id="3WXc7A_SLaowkCH6H4nz-9" value="- const int PREFIX" style="text;align=left;verticalAlign=top;spacingLeft=4;spacingRight=4;overflow=hidden;rotatable=0;points=[[0,0.5],[1,0.5]];portConstraint=eastwest;" vertex="1" parent="3WXc7A_SLaowkCH6H4nz-8">
          <mxGeometry y="26" width="247" height="26" as="geometry" />
        </mxCell>
        <mxCell id="3WXc7A_SLaowkCH6H4nz-14" value="" style="line;html=1;strokeWidth=1;align=left;verticalAlign=middle;spacingTop=-1;spacingLeft=3;spacingRight=3;rotatable=0;labelPosition=right;points=[];portConstraint=eastwest;" vertex="1" parent="3WXc7A_SLaowkCH6H4nz-8">
          <mxGeometry y="52" width="247" height="8" as="geometry" />
        </mxCell>
        <mxCell id="3WXc7A_SLaowkCH6H4nz-15" value="+ override DateTime GenerateExpiryDate()" style="text;align=left;verticalAlign=top;spacingLeft=4;spacingRight=4;overflow=hidden;rotatable=0;points=[[0,0.5],[1,0.5]];portConstraint=eastwest;" vertex="1" parent="3WXc7A_SLaowkCH6H4nz-8">
          <mxGeometry y="60" width="247" height="26" as="geometry" />
        </mxCell>
        <mxCell id="3WXc7A_SLaowkCH6H4nz-16" value="+ override string GenerateCardNumber()" style="text;align=left;verticalAlign=top;spacingLeft=4;spacingRight=4;overflow=hidden;rotatable=0;points=[[0,0.5],[1,0.5]];portConstraint=eastwest;" vertex="1" parent="3WXc7A_SLaowkCH6H4nz-8">
          <mxGeometry y="86" width="247" height="26" as="geometry" />
        </mxCell>
        <mxCell id="3WXc7A_SLaowkCH6H4nz-102" style="edgeStyle=orthogonalEdgeStyle;rounded=0;orthogonalLoop=1;jettySize=auto;html=1;" edge="1" parent="WIyWlLk6GJQsqaUBKTNV-1" source="3WXc7A_SLaowkCH6H4nz-67" target="3WXc7A_SLaowkCH6H4nz-3">
          <mxGeometry relative="1" as="geometry" />
        </mxCell>
        <mxCell id="3WXc7A_SLaowkCH6H4nz-67" value="Account" style="swimlane;fontStyle=0;align=center;verticalAlign=top;childLayout=stackLayout;horizontal=1;startSize=26;horizontalStack=0;resizeParent=1;resizeLast=0;collapsible=1;marginBottom=0;rounded=0;shadow=0;strokeWidth=1;" vertex="1" parent="WIyWlLk6GJQsqaUBKTNV-1">
          <mxGeometry x="690" y="133" width="200" height="242" as="geometry">
            <mxRectangle x="550" y="140" width="160" height="26" as="alternateBounds" />
          </mxGeometry>
        </mxCell>
        <mxCell id="3WXc7A_SLaowkCH6H4nz-68" value="- double _accountNumber" style="text;align=left;verticalAlign=top;spacingLeft=4;spacingRight=4;overflow=hidden;rotatable=0;points=[[0,0.5],[1,0.5]];portConstraint=eastwest;" vertex="1" parent="3WXc7A_SLaowkCH6H4nz-67">
          <mxGeometry y="26" width="200" height="26" as="geometry" />
        </mxCell>
        <mxCell id="3WXc7A_SLaowkCH6H4nz-69" value="- int _regNumber" style="text;align=left;verticalAlign=top;spacingLeft=4;spacingRight=4;overflow=hidden;rotatable=0;points=[[0,0.5],[1,0.5]];portConstraint=eastwest;rounded=0;shadow=0;html=0;" vertex="1" parent="3WXc7A_SLaowkCH6H4nz-67">
          <mxGeometry y="52" width="200" height="26" as="geometry" />
        </mxCell>
        <mxCell id="3WXc7A_SLaowkCH6H4nz-70" value="- string _accountHolderFirstName" style="text;align=left;verticalAlign=top;spacingLeft=4;spacingRight=4;overflow=hidden;rotatable=0;points=[[0,0.5],[1,0.5]];portConstraint=eastwest;rounded=0;shadow=0;html=0;" vertex="1" parent="3WXc7A_SLaowkCH6H4nz-67">
          <mxGeometry y="78" width="200" height="26" as="geometry" />
        </mxCell>
        <mxCell id="3WXc7A_SLaowkCH6H4nz-71" value="- string _accountHolderLastName" style="text;align=left;verticalAlign=top;spacingLeft=4;spacingRight=4;overflow=hidden;rotatable=0;points=[[0,0.5],[1,0.5]];portConstraint=eastwest;rounded=0;shadow=0;html=0;" vertex="1" parent="3WXc7A_SLaowkCH6H4nz-67">
          <mxGeometry y="104" width="200" height="26" as="geometry" />
        </mxCell>
        <mxCell id="3WXc7A_SLaowkCH6H4nz-76" value="- List&lt;Card&gt; _cards" style="text;align=left;verticalAlign=top;spacingLeft=4;spacingRight=4;overflow=hidden;rotatable=0;points=[[0,0.5],[1,0.5]];portConstraint=eastwest;rounded=0;shadow=0;html=0;" vertex="1" parent="3WXc7A_SLaowkCH6H4nz-67">
          <mxGeometry y="130" width="200" height="26" as="geometry" />
        </mxCell>
        <mxCell id="3WXc7A_SLaowkCH6H4nz-73" value="" style="line;html=1;strokeWidth=1;align=left;verticalAlign=middle;spacingTop=-1;spacingLeft=3;spacingRight=3;rotatable=0;labelPosition=right;points=[];portConstraint=eastwest;" vertex="1" parent="3WXc7A_SLaowkCH6H4nz-67">
          <mxGeometry y="156" width="200" height="8" as="geometry" />
        </mxCell>
        <mxCell id="3WXc7A_SLaowkCH6H4nz-74" value="- double GenerateAccountNumber()" style="text;align=left;verticalAlign=top;spacingLeft=4;spacingRight=4;overflow=hidden;rotatable=0;points=[[0,0.5],[1,0.5]];portConstraint=eastwest;" vertex="1" parent="3WXc7A_SLaowkCH6H4nz-67">
          <mxGeometry y="164" width="200" height="26" as="geometry" />
        </mxCell>
        <mxCell id="3WXc7A_SLaowkCH6H4nz-75" value="- AddCard(Card c)" style="text;align=left;verticalAlign=top;spacingLeft=4;spacingRight=4;overflow=hidden;rotatable=0;points=[[0,0.5],[1,0.5]];portConstraint=eastwest;" vertex="1" parent="3WXc7A_SLaowkCH6H4nz-67">
          <mxGeometry y="190" width="200" height="26" as="geometry" />
        </mxCell>
        <mxCell id="3WXc7A_SLaowkCH6H4nz-81" value="- List&lt;Card&gt; ReturnCards()" style="text;align=left;verticalAlign=top;spacingLeft=4;spacingRight=4;overflow=hidden;rotatable=0;points=[[0,0.5],[1,0.5]];portConstraint=eastwest;" vertex="1" parent="3WXc7A_SLaowkCH6H4nz-67">
          <mxGeometry y="216" width="200" height="26" as="geometry" />
        </mxCell>
        <mxCell id="3WXc7A_SLaowkCH6H4nz-79" value="" style="endArrow=block;endSize=16;endFill=0;html=1;rounded=0;entryX=0.421;entryY=1.038;entryDx=0;entryDy=0;entryPerimeter=0;" edge="1" parent="WIyWlLk6GJQsqaUBKTNV-1" target="3WXc7A_SLaowkCH6H4nz-7">
          <mxGeometry width="160" relative="1" as="geometry">
            <mxPoint x="1321" y="400" as="sourcePoint" />
            <mxPoint x="1000" y="390" as="targetPoint" />
          </mxGeometry>
        </mxCell>
        <mxCell id="3WXc7A_SLaowkCH6H4nz-87" value="Mastercard" style="swimlane;fontStyle=0;align=center;verticalAlign=top;childLayout=stackLayout;horizontal=1;startSize=26;horizontalStack=0;resizeParent=1;resizeLast=0;collapsible=1;marginBottom=0;rounded=0;shadow=0;strokeWidth=1;" vertex="1" parent="WIyWlLk6GJQsqaUBKTNV-1">
          <mxGeometry x="1150" y="440" width="247" height="130" as="geometry">
            <mxRectangle x="550" y="140" width="160" height="26" as="alternateBounds" />
          </mxGeometry>
        </mxCell>
        <mxCell id="3WXc7A_SLaowkCH6H4nz-88" value="- const int PREFIX" style="text;align=left;verticalAlign=top;spacingLeft=4;spacingRight=4;overflow=hidden;rotatable=0;points=[[0,0.5],[1,0.5]];portConstraint=eastwest;" vertex="1" parent="3WXc7A_SLaowkCH6H4nz-87">
          <mxGeometry y="26" width="247" height="26" as="geometry" />
        </mxCell>
        <mxCell id="3WXc7A_SLaowkCH6H4nz-89" value="" style="line;html=1;strokeWidth=1;align=left;verticalAlign=middle;spacingTop=-1;spacingLeft=3;spacingRight=3;rotatable=0;labelPosition=right;points=[];portConstraint=eastwest;" vertex="1" parent="3WXc7A_SLaowkCH6H4nz-87">
          <mxGeometry y="52" width="247" height="8" as="geometry" />
        </mxCell>
        <mxCell id="3WXc7A_SLaowkCH6H4nz-90" value="+ override DateTime GenerateExpiryDate()" style="text;align=left;verticalAlign=top;spacingLeft=4;spacingRight=4;overflow=hidden;rotatable=0;points=[[0,0.5],[1,0.5]];portConstraint=eastwest;" vertex="1" parent="3WXc7A_SLaowkCH6H4nz-87">
          <mxGeometry y="60" width="247" height="26" as="geometry" />
        </mxCell>
        <mxCell id="3WXc7A_SLaowkCH6H4nz-91" value="+ override string GenerateCardNumber()" style="text;align=left;verticalAlign=top;spacingLeft=4;spacingRight=4;overflow=hidden;rotatable=0;points=[[0,0.5],[1,0.5]];portConstraint=eastwest;" vertex="1" parent="3WXc7A_SLaowkCH6H4nz-87">
          <mxGeometry y="86" width="247" height="26" as="geometry" />
        </mxCell>
        <mxCell id="3WXc7A_SLaowkCH6H4nz-92" value="VISA" style="swimlane;fontStyle=0;align=center;verticalAlign=top;childLayout=stackLayout;horizontal=1;startSize=26;horizontalStack=0;resizeParent=1;resizeLast=0;collapsible=1;marginBottom=0;rounded=0;shadow=0;strokeWidth=1;" vertex="1" parent="WIyWlLk6GJQsqaUBKTNV-1">
          <mxGeometry x="1420" y="440" width="247" height="130" as="geometry">
            <mxRectangle x="550" y="140" width="160" height="26" as="alternateBounds" />
          </mxGeometry>
        </mxCell>
        <mxCell id="3WXc7A_SLaowkCH6H4nz-93" value="- const int PREFIX" style="text;align=left;verticalAlign=top;spacingLeft=4;spacingRight=4;overflow=hidden;rotatable=0;points=[[0,0.5],[1,0.5]];portConstraint=eastwest;" vertex="1" parent="3WXc7A_SLaowkCH6H4nz-92">
          <mxGeometry y="26" width="247" height="26" as="geometry" />
        </mxCell>
        <mxCell id="3WXc7A_SLaowkCH6H4nz-94" value="" style="line;html=1;strokeWidth=1;align=left;verticalAlign=middle;spacingTop=-1;spacingLeft=3;spacingRight=3;rotatable=0;labelPosition=right;points=[];portConstraint=eastwest;" vertex="1" parent="3WXc7A_SLaowkCH6H4nz-92">
          <mxGeometry y="52" width="247" height="8" as="geometry" />
        </mxCell>
        <mxCell id="3WXc7A_SLaowkCH6H4nz-95" value="+ override DateTime GenerateExpiryDate()" style="text;align=left;verticalAlign=top;spacingLeft=4;spacingRight=4;overflow=hidden;rotatable=0;points=[[0,0.5],[1,0.5]];portConstraint=eastwest;" vertex="1" parent="3WXc7A_SLaowkCH6H4nz-92">
          <mxGeometry y="60" width="247" height="26" as="geometry" />
        </mxCell>
        <mxCell id="3WXc7A_SLaowkCH6H4nz-96" value="+ override string GenerateCardNumber()" style="text;align=left;verticalAlign=top;spacingLeft=4;spacingRight=4;overflow=hidden;rotatable=0;points=[[0,0.5],[1,0.5]];portConstraint=eastwest;" vertex="1" parent="3WXc7A_SLaowkCH6H4nz-92">
          <mxGeometry y="86" width="247" height="26" as="geometry" />
        </mxCell>
        <mxCell id="3WXc7A_SLaowkCH6H4nz-97" value="VisaElectron" style="swimlane;fontStyle=0;align=center;verticalAlign=top;childLayout=stackLayout;horizontal=1;startSize=26;horizontalStack=0;resizeParent=1;resizeLast=0;collapsible=1;marginBottom=0;rounded=0;shadow=0;strokeWidth=1;" vertex="1" parent="WIyWlLk6GJQsqaUBKTNV-1">
          <mxGeometry x="1690" y="440" width="247" height="130" as="geometry">
            <mxRectangle x="550" y="140" width="160" height="26" as="alternateBounds" />
          </mxGeometry>
        </mxCell>
        <mxCell id="3WXc7A_SLaowkCH6H4nz-98" value="- const int PREFIX" style="text;align=left;verticalAlign=top;spacingLeft=4;spacingRight=4;overflow=hidden;rotatable=0;points=[[0,0.5],[1,0.5]];portConstraint=eastwest;" vertex="1" parent="3WXc7A_SLaowkCH6H4nz-97">
          <mxGeometry y="26" width="247" height="26" as="geometry" />
        </mxCell>
        <mxCell id="3WXc7A_SLaowkCH6H4nz-99" value="" style="line;html=1;strokeWidth=1;align=left;verticalAlign=middle;spacingTop=-1;spacingLeft=3;spacingRight=3;rotatable=0;labelPosition=right;points=[];portConstraint=eastwest;" vertex="1" parent="3WXc7A_SLaowkCH6H4nz-97">
          <mxGeometry y="52" width="247" height="8" as="geometry" />
        </mxCell>
        <mxCell id="3WXc7A_SLaowkCH6H4nz-100" value="+ override DateTime GenerateExpiryDate()" style="text;align=left;verticalAlign=top;spacingLeft=4;spacingRight=4;overflow=hidden;rotatable=0;points=[[0,0.5],[1,0.5]];portConstraint=eastwest;" vertex="1" parent="3WXc7A_SLaowkCH6H4nz-97">
          <mxGeometry y="60" width="247" height="26" as="geometry" />
        </mxCell>
        <mxCell id="3WXc7A_SLaowkCH6H4nz-101" value="+ override string GenerateCardNumber()" style="text;align=left;verticalAlign=top;spacingLeft=4;spacingRight=4;overflow=hidden;rotatable=0;points=[[0,0.5],[1,0.5]];portConstraint=eastwest;" vertex="1" parent="3WXc7A_SLaowkCH6H4nz-97">
          <mxGeometry y="86" width="247" height="26" as="geometry" />
        </mxCell>
        <mxCell id="3WXc7A_SLaowkCH6H4nz-103" value="1..*" style="text;html=1;align=center;verticalAlign=middle;whiteSpace=wrap;rounded=0;" vertex="1" parent="WIyWlLk6GJQsqaUBKTNV-1">
          <mxGeometry x="900" y="210" width="60" height="30" as="geometry" />
        </mxCell>
        <mxCell id="3WXc7A_SLaowkCH6H4nz-82" value="Maestro" style="swimlane;fontStyle=0;align=center;verticalAlign=top;childLayout=stackLayout;horizontal=1;startSize=26;horizontalStack=0;resizeParent=1;resizeLast=0;collapsible=1;marginBottom=0;rounded=0;shadow=0;strokeWidth=1;" vertex="1" parent="WIyWlLk6GJQsqaUBKTNV-1">
          <mxGeometry x="880" y="440" width="247" height="130" as="geometry">
            <mxRectangle x="550" y="140" width="160" height="26" as="alternateBounds" />
          </mxGeometry>
        </mxCell>
        <mxCell id="3WXc7A_SLaowkCH6H4nz-83" value="- const int PREFIX" style="text;align=left;verticalAlign=top;spacingLeft=4;spacingRight=4;overflow=hidden;rotatable=0;points=[[0,0.5],[1,0.5]];portConstraint=eastwest;" vertex="1" parent="3WXc7A_SLaowkCH6H4nz-82">
          <mxGeometry y="26" width="247" height="26" as="geometry" />
        </mxCell>
        <mxCell id="3WXc7A_SLaowkCH6H4nz-84" value="" style="line;html=1;strokeWidth=1;align=left;verticalAlign=middle;spacingTop=-1;spacingLeft=3;spacingRight=3;rotatable=0;labelPosition=right;points=[];portConstraint=eastwest;" vertex="1" parent="3WXc7A_SLaowkCH6H4nz-82">
          <mxGeometry y="52" width="247" height="8" as="geometry" />
        </mxCell>
        <mxCell id="3WXc7A_SLaowkCH6H4nz-85" value="+ override DateTime GenerateExpiryDate()" style="text;align=left;verticalAlign=top;spacingLeft=4;spacingRight=4;overflow=hidden;rotatable=0;points=[[0,0.5],[1,0.5]];portConstraint=eastwest;" vertex="1" parent="3WXc7A_SLaowkCH6H4nz-82">
          <mxGeometry y="60" width="247" height="26" as="geometry" />
        </mxCell>
        <mxCell id="3WXc7A_SLaowkCH6H4nz-86" value="+ override string GenerateCardNumber()" style="text;align=left;verticalAlign=top;spacingLeft=4;spacingRight=4;overflow=hidden;rotatable=0;points=[[0,0.5],[1,0.5]];portConstraint=eastwest;" vertex="1" parent="3WXc7A_SLaowkCH6H4nz-82">
          <mxGeometry y="86" width="247" height="26" as="geometry" />
        </mxCell>
        <mxCell id="3WXc7A_SLaowkCH6H4nz-105" value="" style="endArrow=none;html=1;rounded=0;exitX=0.437;exitY=-0.008;exitDx=0;exitDy=0;exitPerimeter=0;" edge="1" parent="WIyWlLk6GJQsqaUBKTNV-1" source="3WXc7A_SLaowkCH6H4nz-8">
          <mxGeometry width="50" height="50" relative="1" as="geometry">
            <mxPoint x="1020" y="460" as="sourcePoint" />
            <mxPoint x="990" y="400" as="targetPoint" />
            <Array as="points">
              <mxPoint x="718" y="400" />
            </Array>
          </mxGeometry>
        </mxCell>
        <mxCell id="3WXc7A_SLaowkCH6H4nz-106" value="" style="endArrow=none;html=1;rounded=0;exitX=0.5;exitY=0;exitDx=0;exitDy=0;" edge="1" parent="WIyWlLk6GJQsqaUBKTNV-1" source="3WXc7A_SLaowkCH6H4nz-92">
          <mxGeometry width="50" height="50" relative="1" as="geometry">
            <mxPoint x="1020" y="460" as="sourcePoint" />
            <mxPoint x="990" y="400" as="targetPoint" />
            <Array as="points">
              <mxPoint x="1544" y="400" />
            </Array>
          </mxGeometry>
        </mxCell>
        <mxCell id="3WXc7A_SLaowkCH6H4nz-107" value="" style="endArrow=none;html=1;rounded=0;exitX=0.5;exitY=0;exitDx=0;exitDy=0;" edge="1" parent="WIyWlLk6GJQsqaUBKTNV-1" source="3WXc7A_SLaowkCH6H4nz-82">
          <mxGeometry width="50" height="50" relative="1" as="geometry">
            <mxPoint x="1120" y="450" as="sourcePoint" />
            <mxPoint x="1004" y="400" as="targetPoint" />
          </mxGeometry>
        </mxCell>
        <mxCell id="3WXc7A_SLaowkCH6H4nz-108" value="" style="endArrow=none;html=1;rounded=0;exitX=0.5;exitY=0;exitDx=0;exitDy=0;" edge="1" parent="WIyWlLk6GJQsqaUBKTNV-1" source="3WXc7A_SLaowkCH6H4nz-87">
          <mxGeometry width="50" height="50" relative="1" as="geometry">
            <mxPoint x="1120" y="450" as="sourcePoint" />
            <mxPoint x="1274" y="400" as="targetPoint" />
          </mxGeometry>
        </mxCell>
      </root>
    </mxGraphModel>
  </diagram>
</mxfile>
